<svg xmlns="http://www.w3.org/2000/svg" width="371.412" height="371.412">
    <path d="M333.068 161.691c-52.021-52.632-94.86-113.832-153-159.732-3.672-3.06-7.956-2.448-11.016 1.224-42.84 56.304-85.068 112.608-130.968 165.852-1.836 2.448-1.836 4.896-.612 6.732-3.06 3.672 0 11.016 6.12 9.792 28.152-4.284 56.304 3.06 85.068 1.836-7.956 34.884-28.152 66.708-42.84 99.144-6.12 13.465-25.092 48.348-15.3 65.484-2.448 3.061-.612 9.18 4.284 9.791 44.064 1.836 87.516 7.957 130.968 9.182 22.644.611 77.111 3.672 87.516-23.256 1.224-2.449-.612-4.896-2.448-6.121 1.836-1.225 3.061-3.061 3.061-4.896-2.448-22.031-17.748-44.062-26.929-64.26-12.239-28.152-24.479-58.139-27.54-89.352 28.765 3.672 59.364 4.896 88.129.612 6.731-.612 8.567-8.568 5.508-12.24 2.448-1.836 3.059-6.12-.001-9.792zm-98.532 9.792c-4.896.612-6.12 4.896-4.896 7.956-4.284 28.764 6.119 56.916 15.911 83.844 9.181 24.48 19.584 58.141 37.332 77.725l.612.611c-11.016 4.283-20.808 9.793-33.66 11.629-22.032 3.672-44.676 2.447-66.708 1.223-31.824-1.223-65.484-7.344-98.532-4.283 1.224-8.568 1.224-17.137 3.672-25.705 5.508-19.584 15.3-37.943 23.868-56.303 11.628-26.316 24.48-53.244 27.54-82.008 4.896-4.285 3.06-13.464-4.284-12.853-28.152 1.836-56.304-3.672-84.456-.612 45.9-47.736 85.068-102.204 125.46-155.448 54.468 44.676 95.472 102.204 144.432 153-28.763 1.224-58.139-1.836-86.291 1.224z"/>
</svg>
