<svg width="53" height="53" fill="none" xmlns="http://www.w3.org/2000/svg"><g clip-path="url(#clip0)" filter="url(#filter0_d)"><path d="M26.5 45C38.928 45 49 34.926 49 22.5 49 10.073 38.928 0 26.5 0 14.076 0 4.002 10.073 4.002 22.5c0 12.426 10.073 22.5 22.5 22.5z" fill="#55ACEE"/><path d="M40.282 16.17a10.73 10.73 0 01-3.089.846 5.393 5.393 0 002.365-2.975 10.764 10.764 0 01-3.415 1.305 5.373 5.373 0 00-3.927-1.698 5.379 5.379 0 00-5.238 6.604 15.267 15.267 0 01-11.085-5.62 5.355 5.355 0 00-.729 2.704c0 1.865.95 3.512 2.393 4.476a5.34 5.34 0 01-2.436-.673v.068a5.381 5.381 0 004.314 5.273 5.356 5.356 0 01-2.428.093 5.384 5.384 0 005.024 3.735 10.79 10.79 0 01-6.68 2.302c-.434 0-.863-.025-1.283-.075a15.213 15.213 0 008.244 2.416c9.892 0 15.302-8.195 15.302-15.302 0-.233-.005-.465-.016-.696a10.907 10.907 0 002.684-2.783z" fill="#F1F2F2"/></g><defs><clipPath id="clip0"><path fill="#fff" transform="translate(4)" d="M0 0h45v45H0z"/></clipPath><filter id="filter0_d" x="0" y="0" width="53" height="53" filterUnits="userSpaceOnUse" color-interpolation-filters="sRGB"><feFlood flood-opacity="0" result="BackgroundImageFix"/><feColorMatrix in="SourceAlpha" values="0 0 0 0 0 0 0 0 0 0 0 0 0 0 0 0 0 0 127 0"/><feOffset dy="4"/><feGaussianBlur stdDeviation="2"/><feColorMatrix values="0 0 0 0 0 0 0 0 0 0 0 0 0 0 0 0 0 0 0.25 0"/><feBlend in2="BackgroundImageFix" result="effect1_dropShadow"/><feBlend in="SourceGraphic" in2="effect1_dropShadow" result="shape"/></filter></defs></svg>