<svg width="53" height="53" viewBox="0 0 53 53" fill="none" xmlns="http://www.w3.org/2000/svg">
<g clip-path="url(#clip0)" filter="url(#filter0_d)">
<path d="M26.5008 44.9996C38.9271 44.9996 49.0006 34.9261 49.0006 22.4998C49.0006 10.0735 38.9271 0 26.5008 0C14.0745 0 4.00098 10.0735 4.00098 22.4998C4.00098 34.9261 14.0745 44.9996 26.5008 44.9996Z" fill="#55ACEE"/>
<path d="M40.2822 16.17C39.318 16.5975 38.2808 16.8867 37.193 17.0158C38.3036 16.3504 39.1559 15.2976 39.5582 14.041C38.519 14.6575 37.3675 15.1047 36.143 15.3457C35.162 14.3009 33.7642 13.648 32.2164 13.648C29.2468 13.648 26.8384 16.0565 26.8384 19.026C26.8384 19.4476 26.8861 19.8579 26.9783 20.2518C22.5087 20.0275 18.5456 17.8866 15.8929 14.6318C15.43 15.426 15.1645 16.3504 15.1645 17.3359C15.1645 19.2013 16.1147 20.8482 17.557 21.8124C16.6758 21.7847 15.8459 21.5428 15.1212 21.1389C15.1208 21.1618 15.1208 21.1847 15.1208 21.2071C15.1208 23.8129 16.9754 25.9864 19.4352 26.4801C18.9844 26.6037 18.5083 26.669 18.0186 26.669C17.6713 26.669 17.3348 26.6357 17.0067 26.5732C17.6909 28.7093 19.6767 30.2643 22.0306 30.308C20.1896 31.7507 17.871 32.6102 15.3506 32.6102C14.9174 32.6102 14.4883 32.585 14.0684 32.5348C16.4472 34.0613 19.2748 34.9513 22.3118 34.9513C32.204 34.9513 37.6138 26.7565 37.6138 19.6489C37.6138 19.4159 37.6086 19.1837 37.5981 18.9535C38.6498 18.1954 39.5614 17.2485 40.2822 16.17Z" fill="#F1F2F2"/>
</g>
<defs>
<filter id="filter0_d" x="0" y="0" width="53" height="53" filterUnits="userSpaceOnUse" color-interpolation-filters="sRGB">
<feFlood flood-opacity="0" result="BackgroundImageFix"/>
<feColorMatrix in="SourceAlpha" type="matrix" values="0 0 0 0 0 0 0 0 0 0 0 0 0 0 0 0 0 0 127 0"/>
<feOffset dy="4"/>
<feGaussianBlur stdDeviation="2"/>
<feColorMatrix type="matrix" values="0 0 0 0 0 0 0 0 0 0 0 0 0 0 0 0 0 0 0.25 0"/>
<feBlend mode="normal" in2="BackgroundImageFix" result="effect1_dropShadow"/>
<feBlend mode="normal" in="SourceGraphic" in2="effect1_dropShadow" result="shape"/>
</filter>
<clipPath id="clip0">
<rect width="45" height="45" fill="white" transform="translate(4)"/>
</clipPath>
</defs>
</svg>
